%TF.GenerationSoftware,KiCad,Pcbnew,10.0.3*%
%TF.CreationDate,2026-06-21T16:17:55-04:00*%
%TF.ProjectId,tamagotchi,74616d61-676f-4746-9368-692e6b696361,rev?*%
%TF.SameCoordinates,Original*%
%TF.FileFunction,Legend,Top*%
%TF.FilePolarity,Positive*%
%FSLAX46Y46*%
G04 Gerber Fmt 4.6, Leading zero omitted, Abs format (unit mm)*
G04 Created by KiCad (PCBNEW 10.0.3) date 2026-06-21 16:17:55*
%MOMM*%
%LPD*%
G01*
G04 APERTURE LIST*
%ADD10C,0.150000*%
%ADD11C,0.200000*%
%ADD12C,0.250000*%
%ADD13C,0.120000*%
%ADD14C,0.060000*%
G04 APERTURE END LIST*
D10*
X111166666Y-121304819D02*
X110833333Y-120828628D01*
X110595238Y-121304819D02*
X110595238Y-120304819D01*
X110595238Y-120304819D02*
X110976190Y-120304819D01*
X110976190Y-120304819D02*
X111071428Y-120352438D01*
X111071428Y-120352438D02*
X111119047Y-120400057D01*
X111119047Y-120400057D02*
X111166666Y-120495295D01*
X111166666Y-120495295D02*
X111166666Y-120638152D01*
X111166666Y-120638152D02*
X111119047Y-120733390D01*
X111119047Y-120733390D02*
X111071428Y-120781009D01*
X111071428Y-120781009D02*
X110976190Y-120828628D01*
X110976190Y-120828628D02*
X110595238Y-120828628D01*
X111595238Y-120781009D02*
X111928571Y-120781009D01*
X112071428Y-121304819D02*
X111595238Y-121304819D01*
X111595238Y-121304819D02*
X111595238Y-120304819D01*
X111595238Y-120304819D02*
X112071428Y-120304819D01*
X112833333Y-120781009D02*
X112500000Y-120781009D01*
X112500000Y-121304819D02*
X112500000Y-120304819D01*
X112500000Y-120304819D02*
X112976190Y-120304819D01*
X113500000Y-120304819D02*
X113500000Y-120542914D01*
X113261905Y-120447676D02*
X113500000Y-120542914D01*
X113500000Y-120542914D02*
X113738095Y-120447676D01*
X113357143Y-120733390D02*
X113500000Y-120542914D01*
X113500000Y-120542914D02*
X113642857Y-120733390D01*
X114261905Y-120304819D02*
X114261905Y-120542914D01*
X114023810Y-120447676D02*
X114261905Y-120542914D01*
X114261905Y-120542914D02*
X114500000Y-120447676D01*
X114119048Y-120733390D02*
X114261905Y-120542914D01*
X114261905Y-120542914D02*
X114404762Y-120733390D01*
X147166666Y-121304819D02*
X146833333Y-120828628D01*
X146595238Y-121304819D02*
X146595238Y-120304819D01*
X146595238Y-120304819D02*
X146976190Y-120304819D01*
X146976190Y-120304819D02*
X147071428Y-120352438D01*
X147071428Y-120352438D02*
X147119047Y-120400057D01*
X147119047Y-120400057D02*
X147166666Y-120495295D01*
X147166666Y-120495295D02*
X147166666Y-120638152D01*
X147166666Y-120638152D02*
X147119047Y-120733390D01*
X147119047Y-120733390D02*
X147071428Y-120781009D01*
X147071428Y-120781009D02*
X146976190Y-120828628D01*
X146976190Y-120828628D02*
X146595238Y-120828628D01*
X147595238Y-120781009D02*
X147928571Y-120781009D01*
X148071428Y-121304819D02*
X147595238Y-121304819D01*
X147595238Y-121304819D02*
X147595238Y-120304819D01*
X147595238Y-120304819D02*
X148071428Y-120304819D01*
X148833333Y-120781009D02*
X148500000Y-120781009D01*
X148500000Y-121304819D02*
X148500000Y-120304819D01*
X148500000Y-120304819D02*
X148976190Y-120304819D01*
X149500000Y-120304819D02*
X149500000Y-120542914D01*
X149261905Y-120447676D02*
X149500000Y-120542914D01*
X149500000Y-120542914D02*
X149738095Y-120447676D01*
X149357143Y-120733390D02*
X149500000Y-120542914D01*
X149500000Y-120542914D02*
X149642857Y-120733390D01*
X150261905Y-120304819D02*
X150261905Y-120542914D01*
X150023810Y-120447676D02*
X150261905Y-120542914D01*
X150261905Y-120542914D02*
X150500000Y-120447676D01*
X150119048Y-120733390D02*
X150261905Y-120542914D01*
X150261905Y-120542914D02*
X150404762Y-120733390D01*
X129166666Y-58554819D02*
X128833333Y-58078628D01*
X128595238Y-58554819D02*
X128595238Y-57554819D01*
X128595238Y-57554819D02*
X128976190Y-57554819D01*
X128976190Y-57554819D02*
X129071428Y-57602438D01*
X129071428Y-57602438D02*
X129119047Y-57650057D01*
X129119047Y-57650057D02*
X129166666Y-57745295D01*
X129166666Y-57745295D02*
X129166666Y-57888152D01*
X129166666Y-57888152D02*
X129119047Y-57983390D01*
X129119047Y-57983390D02*
X129071428Y-58031009D01*
X129071428Y-58031009D02*
X128976190Y-58078628D01*
X128976190Y-58078628D02*
X128595238Y-58078628D01*
X129595238Y-58031009D02*
X129928571Y-58031009D01*
X130071428Y-58554819D02*
X129595238Y-58554819D01*
X129595238Y-58554819D02*
X129595238Y-57554819D01*
X129595238Y-57554819D02*
X130071428Y-57554819D01*
X130833333Y-58031009D02*
X130500000Y-58031009D01*
X130500000Y-58554819D02*
X130500000Y-57554819D01*
X130500000Y-57554819D02*
X130976190Y-57554819D01*
X131500000Y-57554819D02*
X131500000Y-57792914D01*
X131261905Y-57697676D02*
X131500000Y-57792914D01*
X131500000Y-57792914D02*
X131738095Y-57697676D01*
X131357143Y-57983390D02*
X131500000Y-57792914D01*
X131500000Y-57792914D02*
X131642857Y-57983390D01*
X132261905Y-57554819D02*
X132261905Y-57792914D01*
X132023810Y-57697676D02*
X132261905Y-57792914D01*
X132261905Y-57792914D02*
X132500000Y-57697676D01*
X132119048Y-57983390D02*
X132261905Y-57792914D01*
X132261905Y-57792914D02*
X132404762Y-57983390D01*
X158364819Y-88166666D02*
X158364819Y-88642856D01*
X158364819Y-88642856D02*
X157364819Y-88642856D01*
X158269580Y-87261904D02*
X158317200Y-87309523D01*
X158317200Y-87309523D02*
X158364819Y-87452380D01*
X158364819Y-87452380D02*
X158364819Y-87547618D01*
X158364819Y-87547618D02*
X158317200Y-87690475D01*
X158317200Y-87690475D02*
X158221961Y-87785713D01*
X158221961Y-87785713D02*
X158126723Y-87833332D01*
X158126723Y-87833332D02*
X157936247Y-87880951D01*
X157936247Y-87880951D02*
X157793390Y-87880951D01*
X157793390Y-87880951D02*
X157602914Y-87833332D01*
X157602914Y-87833332D02*
X157507676Y-87785713D01*
X157507676Y-87785713D02*
X157412438Y-87690475D01*
X157412438Y-87690475D02*
X157364819Y-87547618D01*
X157364819Y-87547618D02*
X157364819Y-87452380D01*
X157364819Y-87452380D02*
X157412438Y-87309523D01*
X157412438Y-87309523D02*
X157460057Y-87261904D01*
X158364819Y-86833332D02*
X157364819Y-86833332D01*
X157364819Y-86833332D02*
X157364819Y-86595237D01*
X157364819Y-86595237D02*
X157412438Y-86452380D01*
X157412438Y-86452380D02*
X157507676Y-86357142D01*
X157507676Y-86357142D02*
X157602914Y-86309523D01*
X157602914Y-86309523D02*
X157793390Y-86261904D01*
X157793390Y-86261904D02*
X157936247Y-86261904D01*
X157936247Y-86261904D02*
X158126723Y-86309523D01*
X158126723Y-86309523D02*
X158221961Y-86357142D01*
X158221961Y-86357142D02*
X158317200Y-86452380D01*
X158317200Y-86452380D02*
X158364819Y-86595237D01*
X158364819Y-86595237D02*
X158364819Y-86833332D01*
X158364819Y-85309523D02*
X158364819Y-85880951D01*
X158364819Y-85595237D02*
X157364819Y-85595237D01*
X157364819Y-85595237D02*
X157507676Y-85690475D01*
X157507676Y-85690475D02*
X157602914Y-85785713D01*
X157602914Y-85785713D02*
X157650533Y-85880951D01*
D11*
X102915383Y-78678244D02*
X103012050Y-78774911D01*
X103012050Y-78774911D02*
X103108716Y-79064911D01*
X103108716Y-79064911D02*
X103108716Y-79258244D01*
X103108716Y-79258244D02*
X103012050Y-79548244D01*
X103012050Y-79548244D02*
X102818716Y-79741578D01*
X102818716Y-79741578D02*
X102625383Y-79838244D01*
X102625383Y-79838244D02*
X102238716Y-79934911D01*
X102238716Y-79934911D02*
X101948716Y-79934911D01*
X101948716Y-79934911D02*
X101562050Y-79838244D01*
X101562050Y-79838244D02*
X101368716Y-79741578D01*
X101368716Y-79741578D02*
X101175383Y-79548244D01*
X101175383Y-79548244D02*
X101078716Y-79258244D01*
X101078716Y-79258244D02*
X101078716Y-79064911D01*
X101078716Y-79064911D02*
X101175383Y-78774911D01*
X101175383Y-78774911D02*
X101272050Y-78678244D01*
X103108716Y-77808244D02*
X101078716Y-77808244D01*
X101078716Y-77808244D02*
X103108716Y-76648244D01*
X103108716Y-76648244D02*
X101078716Y-76648244D01*
X101272050Y-75778244D02*
X101175383Y-75681577D01*
X101175383Y-75681577D02*
X101078716Y-75488244D01*
X101078716Y-75488244D02*
X101078716Y-75004911D01*
X101078716Y-75004911D02*
X101175383Y-74811577D01*
X101175383Y-74811577D02*
X101272050Y-74714911D01*
X101272050Y-74714911D02*
X101465383Y-74618244D01*
X101465383Y-74618244D02*
X101658716Y-74618244D01*
X101658716Y-74618244D02*
X101948716Y-74714911D01*
X101948716Y-74714911D02*
X103108716Y-75874911D01*
X103108716Y-75874911D02*
X103108716Y-74618244D01*
X150775383Y-78878244D02*
X150872050Y-78974911D01*
X150872050Y-78974911D02*
X150968716Y-79264911D01*
X150968716Y-79264911D02*
X150968716Y-79458244D01*
X150968716Y-79458244D02*
X150872050Y-79748244D01*
X150872050Y-79748244D02*
X150678716Y-79941578D01*
X150678716Y-79941578D02*
X150485383Y-80038244D01*
X150485383Y-80038244D02*
X150098716Y-80134911D01*
X150098716Y-80134911D02*
X149808716Y-80134911D01*
X149808716Y-80134911D02*
X149422050Y-80038244D01*
X149422050Y-80038244D02*
X149228716Y-79941578D01*
X149228716Y-79941578D02*
X149035383Y-79748244D01*
X149035383Y-79748244D02*
X148938716Y-79458244D01*
X148938716Y-79458244D02*
X148938716Y-79264911D01*
X148938716Y-79264911D02*
X149035383Y-78974911D01*
X149035383Y-78974911D02*
X149132050Y-78878244D01*
X150968716Y-78008244D02*
X148938716Y-78008244D01*
X148938716Y-78008244D02*
X150968716Y-76848244D01*
X150968716Y-76848244D02*
X148938716Y-76848244D01*
X150968716Y-74818244D02*
X150968716Y-75978244D01*
X150968716Y-75398244D02*
X148938716Y-75398244D01*
X148938716Y-75398244D02*
X149228716Y-75591577D01*
X149228716Y-75591577D02*
X149422050Y-75784911D01*
X149422050Y-75784911D02*
X149518716Y-75978244D01*
D10*
X126776009Y-55285714D02*
X126823628Y-55142857D01*
X126823628Y-55142857D02*
X126871247Y-55095238D01*
X126871247Y-55095238D02*
X126966485Y-55047619D01*
X126966485Y-55047619D02*
X127109342Y-55047619D01*
X127109342Y-55047619D02*
X127204580Y-55095238D01*
X127204580Y-55095238D02*
X127252200Y-55142857D01*
X127252200Y-55142857D02*
X127299819Y-55238095D01*
X127299819Y-55238095D02*
X127299819Y-55619047D01*
X127299819Y-55619047D02*
X126299819Y-55619047D01*
X126299819Y-55619047D02*
X126299819Y-55285714D01*
X126299819Y-55285714D02*
X126347438Y-55190476D01*
X126347438Y-55190476D02*
X126395057Y-55142857D01*
X126395057Y-55142857D02*
X126490295Y-55095238D01*
X126490295Y-55095238D02*
X126585533Y-55095238D01*
X126585533Y-55095238D02*
X126680771Y-55142857D01*
X126680771Y-55142857D02*
X126728390Y-55190476D01*
X126728390Y-55190476D02*
X126776009Y-55285714D01*
X126776009Y-55285714D02*
X126776009Y-55619047D01*
X126299819Y-54761904D02*
X126299819Y-54190476D01*
X127299819Y-54476190D02*
X126299819Y-54476190D01*
X127299819Y-53333333D02*
X127299819Y-53904761D01*
X127299819Y-53619047D02*
X126299819Y-53619047D01*
X126299819Y-53619047D02*
X126442676Y-53714285D01*
X126442676Y-53714285D02*
X126537914Y-53809523D01*
X126537914Y-53809523D02*
X126585533Y-53904761D01*
X114666667Y-107407200D02*
X114809524Y-107454819D01*
X114809524Y-107454819D02*
X115047619Y-107454819D01*
X115047619Y-107454819D02*
X115142857Y-107407200D01*
X115142857Y-107407200D02*
X115190476Y-107359580D01*
X115190476Y-107359580D02*
X115238095Y-107264342D01*
X115238095Y-107264342D02*
X115238095Y-107169104D01*
X115238095Y-107169104D02*
X115190476Y-107073866D01*
X115190476Y-107073866D02*
X115142857Y-107026247D01*
X115142857Y-107026247D02*
X115047619Y-106978628D01*
X115047619Y-106978628D02*
X114857143Y-106931009D01*
X114857143Y-106931009D02*
X114761905Y-106883390D01*
X114761905Y-106883390D02*
X114714286Y-106835771D01*
X114714286Y-106835771D02*
X114666667Y-106740533D01*
X114666667Y-106740533D02*
X114666667Y-106645295D01*
X114666667Y-106645295D02*
X114714286Y-106550057D01*
X114714286Y-106550057D02*
X114761905Y-106502438D01*
X114761905Y-106502438D02*
X114857143Y-106454819D01*
X114857143Y-106454819D02*
X115095238Y-106454819D01*
X115095238Y-106454819D02*
X115238095Y-106502438D01*
X115571429Y-106454819D02*
X115809524Y-107454819D01*
X115809524Y-107454819D02*
X116000000Y-106740533D01*
X116000000Y-106740533D02*
X116190476Y-107454819D01*
X116190476Y-107454819D02*
X116428572Y-106454819D01*
X116714286Y-106454819D02*
X117333333Y-106454819D01*
X117333333Y-106454819D02*
X117000000Y-106835771D01*
X117000000Y-106835771D02*
X117142857Y-106835771D01*
X117142857Y-106835771D02*
X117238095Y-106883390D01*
X117238095Y-106883390D02*
X117285714Y-106931009D01*
X117285714Y-106931009D02*
X117333333Y-107026247D01*
X117333333Y-107026247D02*
X117333333Y-107264342D01*
X117333333Y-107264342D02*
X117285714Y-107359580D01*
X117285714Y-107359580D02*
X117238095Y-107407200D01*
X117238095Y-107407200D02*
X117142857Y-107454819D01*
X117142857Y-107454819D02*
X116857143Y-107454819D01*
X116857143Y-107454819D02*
X116761905Y-107407200D01*
X116761905Y-107407200D02*
X116714286Y-107359580D01*
X161853333Y-76004819D02*
X161520000Y-75528628D01*
X161281905Y-76004819D02*
X161281905Y-75004819D01*
X161281905Y-75004819D02*
X161662857Y-75004819D01*
X161662857Y-75004819D02*
X161758095Y-75052438D01*
X161758095Y-75052438D02*
X161805714Y-75100057D01*
X161805714Y-75100057D02*
X161853333Y-75195295D01*
X161853333Y-75195295D02*
X161853333Y-75338152D01*
X161853333Y-75338152D02*
X161805714Y-75433390D01*
X161805714Y-75433390D02*
X161758095Y-75481009D01*
X161758095Y-75481009D02*
X161662857Y-75528628D01*
X161662857Y-75528628D02*
X161281905Y-75528628D01*
X162234286Y-75100057D02*
X162281905Y-75052438D01*
X162281905Y-75052438D02*
X162377143Y-75004819D01*
X162377143Y-75004819D02*
X162615238Y-75004819D01*
X162615238Y-75004819D02*
X162710476Y-75052438D01*
X162710476Y-75052438D02*
X162758095Y-75100057D01*
X162758095Y-75100057D02*
X162805714Y-75195295D01*
X162805714Y-75195295D02*
X162805714Y-75290533D01*
X162805714Y-75290533D02*
X162758095Y-75433390D01*
X162758095Y-75433390D02*
X162186667Y-76004819D01*
X162186667Y-76004819D02*
X162805714Y-76004819D01*
X161420833Y-92304819D02*
X161087500Y-91828628D01*
X160849405Y-92304819D02*
X160849405Y-91304819D01*
X160849405Y-91304819D02*
X161230357Y-91304819D01*
X161230357Y-91304819D02*
X161325595Y-91352438D01*
X161325595Y-91352438D02*
X161373214Y-91400057D01*
X161373214Y-91400057D02*
X161420833Y-91495295D01*
X161420833Y-91495295D02*
X161420833Y-91638152D01*
X161420833Y-91638152D02*
X161373214Y-91733390D01*
X161373214Y-91733390D02*
X161325595Y-91781009D01*
X161325595Y-91781009D02*
X161230357Y-91828628D01*
X161230357Y-91828628D02*
X160849405Y-91828628D01*
X162373214Y-92304819D02*
X161801786Y-92304819D01*
X162087500Y-92304819D02*
X162087500Y-91304819D01*
X162087500Y-91304819D02*
X161992262Y-91447676D01*
X161992262Y-91447676D02*
X161897024Y-91542914D01*
X161897024Y-91542914D02*
X161801786Y-91590533D01*
X129166667Y-107407200D02*
X129309524Y-107454819D01*
X129309524Y-107454819D02*
X129547619Y-107454819D01*
X129547619Y-107454819D02*
X129642857Y-107407200D01*
X129642857Y-107407200D02*
X129690476Y-107359580D01*
X129690476Y-107359580D02*
X129738095Y-107264342D01*
X129738095Y-107264342D02*
X129738095Y-107169104D01*
X129738095Y-107169104D02*
X129690476Y-107073866D01*
X129690476Y-107073866D02*
X129642857Y-107026247D01*
X129642857Y-107026247D02*
X129547619Y-106978628D01*
X129547619Y-106978628D02*
X129357143Y-106931009D01*
X129357143Y-106931009D02*
X129261905Y-106883390D01*
X129261905Y-106883390D02*
X129214286Y-106835771D01*
X129214286Y-106835771D02*
X129166667Y-106740533D01*
X129166667Y-106740533D02*
X129166667Y-106645295D01*
X129166667Y-106645295D02*
X129214286Y-106550057D01*
X129214286Y-106550057D02*
X129261905Y-106502438D01*
X129261905Y-106502438D02*
X129357143Y-106454819D01*
X129357143Y-106454819D02*
X129595238Y-106454819D01*
X129595238Y-106454819D02*
X129738095Y-106502438D01*
X130071429Y-106454819D02*
X130309524Y-107454819D01*
X130309524Y-107454819D02*
X130500000Y-106740533D01*
X130500000Y-106740533D02*
X130690476Y-107454819D01*
X130690476Y-107454819D02*
X130928572Y-106454819D01*
X131833333Y-107454819D02*
X131261905Y-107454819D01*
X131547619Y-107454819D02*
X131547619Y-106454819D01*
X131547619Y-106454819D02*
X131452381Y-106597676D01*
X131452381Y-106597676D02*
X131357143Y-106692914D01*
X131357143Y-106692914D02*
X131261905Y-106740533D01*
X143666667Y-107407200D02*
X143809524Y-107454819D01*
X143809524Y-107454819D02*
X144047619Y-107454819D01*
X144047619Y-107454819D02*
X144142857Y-107407200D01*
X144142857Y-107407200D02*
X144190476Y-107359580D01*
X144190476Y-107359580D02*
X144238095Y-107264342D01*
X144238095Y-107264342D02*
X144238095Y-107169104D01*
X144238095Y-107169104D02*
X144190476Y-107073866D01*
X144190476Y-107073866D02*
X144142857Y-107026247D01*
X144142857Y-107026247D02*
X144047619Y-106978628D01*
X144047619Y-106978628D02*
X143857143Y-106931009D01*
X143857143Y-106931009D02*
X143761905Y-106883390D01*
X143761905Y-106883390D02*
X143714286Y-106835771D01*
X143714286Y-106835771D02*
X143666667Y-106740533D01*
X143666667Y-106740533D02*
X143666667Y-106645295D01*
X143666667Y-106645295D02*
X143714286Y-106550057D01*
X143714286Y-106550057D02*
X143761905Y-106502438D01*
X143761905Y-106502438D02*
X143857143Y-106454819D01*
X143857143Y-106454819D02*
X144095238Y-106454819D01*
X144095238Y-106454819D02*
X144238095Y-106502438D01*
X144571429Y-106454819D02*
X144809524Y-107454819D01*
X144809524Y-107454819D02*
X145000000Y-106740533D01*
X145000000Y-106740533D02*
X145190476Y-107454819D01*
X145190476Y-107454819D02*
X145428572Y-106454819D01*
X145761905Y-106550057D02*
X145809524Y-106502438D01*
X145809524Y-106502438D02*
X145904762Y-106454819D01*
X145904762Y-106454819D02*
X146142857Y-106454819D01*
X146142857Y-106454819D02*
X146238095Y-106502438D01*
X146238095Y-106502438D02*
X146285714Y-106550057D01*
X146285714Y-106550057D02*
X146333333Y-106645295D01*
X146333333Y-106645295D02*
X146333333Y-106740533D01*
X146333333Y-106740533D02*
X146285714Y-106883390D01*
X146285714Y-106883390D02*
X145714286Y-107454819D01*
X145714286Y-107454819D02*
X146333333Y-107454819D01*
%TO.C,LCD1*%
D12*
X99180000Y-69500000D02*
X99180000Y-104500000D01*
X99180000Y-104500000D02*
X155180000Y-104500000D01*
X101780000Y-74300000D02*
X99180000Y-74300000D01*
X101780000Y-74300000D02*
X101780000Y-99700000D01*
X101780000Y-99700000D02*
X99180000Y-99700000D01*
X152580000Y-74300000D02*
X155180000Y-74300000D01*
X152580000Y-99700000D02*
X152580000Y-74300000D01*
X152580000Y-99700000D02*
X155180000Y-99700000D01*
X155180000Y-69500000D02*
X99180000Y-69500000D01*
X155180000Y-104500000D02*
X155180000Y-69500000D01*
%TO.C,BT1*%
D13*
X127845000Y-55880000D02*
X127845000Y-54500000D01*
X129225000Y-55880000D02*
X127845000Y-55880000D01*
X130495000Y-53120000D02*
X133145000Y-53120000D01*
X130495000Y-55880000D02*
X130495000Y-53120000D01*
X130495000Y-55880000D02*
X133145000Y-55880000D01*
X133145000Y-55880000D02*
X133145000Y-53120000D01*
%TO.C,SW3*%
D12*
X113750000Y-113000000D02*
X113750000Y-112000000D01*
X114250000Y-110250000D02*
X117750000Y-110250000D01*
X117750000Y-114750000D02*
X114240000Y-114750000D01*
X118400000Y-112000000D02*
X118400000Y-113000000D01*
D14*
X113430000Y-110250000D02*
G75*
G02*
X113370000Y-110250000I-30000J0D01*
G01*
X113370000Y-110250000D02*
G75*
G02*
X113430000Y-110250000I30000J0D01*
G01*
D12*
X115180000Y-111000000D02*
G75*
G02*
X114620000Y-111000000I-280000J0D01*
G01*
X114620000Y-111000000D02*
G75*
G02*
X115180000Y-111000000I280000J0D01*
G01*
X115180000Y-114000000D02*
G75*
G02*
X114620000Y-114000000I-280000J0D01*
G01*
X114620000Y-114000000D02*
G75*
G02*
X115180000Y-114000000I280000J0D01*
G01*
X116920000Y-112500000D02*
G75*
G02*
X115080000Y-112500000I-920000J0D01*
G01*
X115080000Y-112500000D02*
G75*
G02*
X116920000Y-112500000I920000J0D01*
G01*
X117380000Y-111000000D02*
G75*
G02*
X116820000Y-111000000I-280000J0D01*
G01*
X116820000Y-111000000D02*
G75*
G02*
X117380000Y-111000000I280000J0D01*
G01*
X117380000Y-114000000D02*
G75*
G02*
X116820000Y-114000000I-280000J0D01*
G01*
X116820000Y-114000000D02*
G75*
G02*
X117380000Y-114000000I280000J0D01*
G01*
%TO.C,R2*%
D13*
X159020000Y-76350000D02*
X165020000Y-76350000D01*
X159020000Y-85150000D02*
X165020000Y-85150000D01*
X159020000Y-85150000D02*
G75*
G02*
X158987350Y-76372440I3000000J4400000D01*
G01*
X165020000Y-76350000D02*
G75*
G02*
X165052650Y-85127560I-3000000J-4400000D01*
G01*
%TO.C,R1*%
X161360436Y-92765000D02*
X161814564Y-92765000D01*
X161360436Y-94235000D02*
X161814564Y-94235000D01*
%TO.C,SW1*%
D12*
X128250000Y-113000000D02*
X128250000Y-112000000D01*
X128750000Y-110250000D02*
X132250000Y-110250000D01*
X132250000Y-114750000D02*
X128740000Y-114750000D01*
X132900000Y-112000000D02*
X132900000Y-113000000D01*
D14*
X127930000Y-110250000D02*
G75*
G02*
X127870000Y-110250000I-30000J0D01*
G01*
X127870000Y-110250000D02*
G75*
G02*
X127930000Y-110250000I30000J0D01*
G01*
D12*
X129680000Y-111000000D02*
G75*
G02*
X129120000Y-111000000I-280000J0D01*
G01*
X129120000Y-111000000D02*
G75*
G02*
X129680000Y-111000000I280000J0D01*
G01*
X129680000Y-114000000D02*
G75*
G02*
X129120000Y-114000000I-280000J0D01*
G01*
X129120000Y-114000000D02*
G75*
G02*
X129680000Y-114000000I280000J0D01*
G01*
X131420000Y-112500000D02*
G75*
G02*
X129580000Y-112500000I-920000J0D01*
G01*
X129580000Y-112500000D02*
G75*
G02*
X131420000Y-112500000I920000J0D01*
G01*
X131880000Y-111000000D02*
G75*
G02*
X131320000Y-111000000I-280000J0D01*
G01*
X131320000Y-111000000D02*
G75*
G02*
X131880000Y-111000000I280000J0D01*
G01*
X131880000Y-114000000D02*
G75*
G02*
X131320000Y-114000000I-280000J0D01*
G01*
X131320000Y-114000000D02*
G75*
G02*
X131880000Y-114000000I280000J0D01*
G01*
%TO.C,SW2*%
X142750000Y-113000000D02*
X142750000Y-112000000D01*
X143250000Y-110250000D02*
X146750000Y-110250000D01*
X146750000Y-114750000D02*
X143240000Y-114750000D01*
X147400000Y-112000000D02*
X147400000Y-113000000D01*
D14*
X142430000Y-110250000D02*
G75*
G02*
X142370000Y-110250000I-30000J0D01*
G01*
X142370000Y-110250000D02*
G75*
G02*
X142430000Y-110250000I30000J0D01*
G01*
D12*
X144180000Y-111000000D02*
G75*
G02*
X143620000Y-111000000I-280000J0D01*
G01*
X143620000Y-111000000D02*
G75*
G02*
X144180000Y-111000000I280000J0D01*
G01*
X144180000Y-114000000D02*
G75*
G02*
X143620000Y-114000000I-280000J0D01*
G01*
X143620000Y-114000000D02*
G75*
G02*
X144180000Y-114000000I280000J0D01*
G01*
X145920000Y-112500000D02*
G75*
G02*
X144080000Y-112500000I-920000J0D01*
G01*
X144080000Y-112500000D02*
G75*
G02*
X145920000Y-112500000I920000J0D01*
G01*
X146380000Y-111000000D02*
G75*
G02*
X145820000Y-111000000I-280000J0D01*
G01*
X145820000Y-111000000D02*
G75*
G02*
X146380000Y-111000000I280000J0D01*
G01*
X146380000Y-114000000D02*
G75*
G02*
X145820000Y-114000000I-280000J0D01*
G01*
X145820000Y-114000000D02*
G75*
G02*
X146380000Y-114000000I280000J0D01*
G01*
%TD*%
M02*
